<svg width="1364" height="1378" viewBox="0 0 1364 1378" fill="none" xmlns="http://www.w3.org/2000/svg">
<path d="M1363.51 0H0V1377.07H1363.51V0Z" fill="#CCCCCC"/>
<path d="M689.621 1322.06L1321.99 1321.61L881.591 754.01L1242.02 471.08L1242.32 449.44L581.421 960.88V32.04H350.921C344.501 29.64 337.591 28.27 330.341 28.27C297.811 28.27 271.441 54.64 271.441 87.17C271.441 300.62 265.321 1112.33 265.261 1119.2C264.781 1126.82 252.981 1156.48 221.061 1179.63C186.691 1204.56 144.661 1210.81 96.1908 1198.27C64.7108 1190.14 32.5607 1209.01 24.4107 1240.51C16.2507 1272 35.1708 1304.14 66.6508 1312.29C92.2008 1318.91 117.471 1322.18 142.031 1322.18C199.001 1322.18 252.181 1304.58 296.451 1270.32C332.391 1242.5 360.111 1204.81 373.741 1167.77H552.421L689.611 1322.08L689.621 1322.06Z" fill="#EA86A5"/>
</svg>
