<svg width="1359" height="1373" viewBox="0 0 1359 1373" fill="none" xmlns="http://www.w3.org/2000/svg">
<path d="M1350.8 7.43506H7.43555V1365.4H1350.8V7.43506Z" fill="#D9E020" stroke="black" stroke-width="14.87"/>
<path d="M707.167 347.575H672.967V1335.47H707.167V347.575Z" fill="#565656"/>
<path d="M77.7754 978.945V1221.2C77.7754 1221.2 84.7254 1342.79 200.175 1342.79C331.875 1342.79 327.115 1221.2 327.115 1221.2V217.255C327.115 217.255 320.015 42.6251 491.925 42.6251C663.835 42.6251 662.945 217.255 662.945 217.255V1309.29C662.945 1309.29 665.735 1341.02 689.865 1341.02C720.345 1341.02 718.005 1309.29 718.005 1309.29V330.505C718.005 330.505 703.615 41.9951 968.005 41.9951C1246.09 41.9951 1224.09 330.505 1224.09 330.505V1300.89C1224.09 1300.89 1221.97 1342.72 1255.8 1342.72C1289.63 1342.72 1285.22 1300.89 1285.22 1300.89V1115.86" stroke="#85BC6C" stroke-width="23" stroke-miterlimit="10"/>
<path d="M1276.27 1116.32V763.925" stroke="#5BEA1F" stroke-width="5" stroke-miterlimit="10"/>
<path d="M1356.09 7.14502H1298.31V1368.03H1356.09V7.14502Z" fill="#FFA655"/>
<path d="M63.866 8.55518H6.08594V1361.99H63.866V8.55518Z" fill="#FF76AE"/>
<path d="M105.695 726.835C105.695 726.835 304.185 636.875 304.185 141.655V20.2153" stroke="#5BEA1F" stroke-width="5" stroke-miterlimit="10"/>
<path d="M1296.34 294.735H1265.35V1117.11H1296.34V294.735Z" fill="#5BEA1F"/>
<path d="M109.236 724.325H65.9258V986.385H109.236V724.325Z" fill="#5BEA1F"/>
</svg>
