<svg width="1368" height="1403" viewBox="0 0 1368 1403" fill="none" xmlns="http://www.w3.org/2000/svg">
<path d="M1367.71 0H0V1402.84H1367.71V0Z" fill="#38182A"/>
<path d="M1327.09 43.6798L1256.09 32.0664L1142.46 726.764L1213.45 738.377L1327.09 43.6798Z" fill="#B59EAA"/>
<path d="M1116.56 1249.48L1310.02 47.3398" stroke="#B59EAA" stroke-width="49" stroke-miterlimit="10"/>
<path d="M1155.1 1203.57H1031.44V1348.24H1155.1V1203.57Z" fill="#CEBA57"/>
<path d="M139.43 213.07L261.73 41.79L1159.05 1206.51H928.14L139.43 213.07Z" fill="#F24C8F"/>
<path d="M215.13 246.7C278.08 246.7 329.11 199.444 329.11 141.15C329.11 82.8562 278.08 35.5996 215.13 35.5996C152.181 35.5996 101.15 82.8562 101.15 141.15C101.15 199.444 152.181 246.7 215.13 246.7Z" fill="#825970"/>
</svg>
